<?xml version="1.0" encoding="UTF-8"?>
<svg width="896px" height="748px" viewBox="0 0 896 748" version="1.1" xmlns="http://www.w3.org/2000/svg" xmlns:xlink="http://www.w3.org/1999/xlink">
    <!-- Generator: Sketch 59.1 (86144) - https://sketch.com -->
    <title>mdpi/shop</title>
    <desc>Created with Sketch.</desc>
    <g id="Page-1" stroke="none" stroke-width="1" fill="none" fill-rule="evenodd">
        <g id="shop" fill-rule="nonzero">
            <path d="M41.634,712.73796 C54.06242,735.78696 80.44,745.68146 80.44,745.68146 C80.44,745.68146 86.66712,718.20603 74.2387,695.15698 C61.81028,672.10793 35.4327,662.21348 35.4327,662.21348 C35.4327,662.21348 29.20559,689.68891 41.634,712.73796 Z" id="Path" fill="#2F2E41"></path>
            <path d="M50.17653,705.15498 C72.61494,718.65467 81.25669,745.46878 81.25669,745.46878 C81.25669,745.46878 53.51857,750.39557 31.08016,736.89587 C8.64175,723.39617 0,696.58207 0,696.58207 C0,696.58207 27.73811,691.65529 50.17653,705.15498 Z" id="Path" fill="#00C1CE"></path>
            <rect id="Rectangle" fill="#F2F2F2" x="413.2485" y="35.90779" width="140" height="2"></rect>
            <rect id="Rectangle" fill="#F2F2F2" x="513.2485" y="37.40779" width="2" height="18.5"></rect>
            <rect id="Rectangle" fill="#F2F2F2" x="452.2485" y="37.40779" width="2" height="18.5"></rect>
            <rect id="Rectangle" fill="#F2F2F2" x="484.2485" y="131.90779" width="140" height="2"></rect>
            <rect id="Rectangle" fill="#F2F2F2" x="522.2485" y="113.90779" width="2" height="18.5"></rect>
            <rect id="Rectangle" fill="#F2F2F2" x="583.2485" y="113.90779" width="2" height="18.5"></rect>
            <rect id="Rectangle" fill="#F2F2F2" x="670.2485" y="176.90779" width="140" height="2"></rect>
            <rect id="Rectangle" fill="#F2F2F2" x="708.2485" y="158.90779" width="2" height="18.5"></rect>
            <rect id="Rectangle" fill="#F2F2F2" x="769.2485" y="158.90779" width="2" height="18.5"></rect>
            <rect id="Rectangle" fill="#F2F2F2" x="656.2485" y="640.90779" width="140" height="2"></rect>
            <rect id="Rectangle" fill="#F2F2F2" x="694.2485" y="622.90779" width="2" height="18.5"></rect>
            <rect id="Rectangle" fill="#F2F2F2" x="755.2485" y="622.90779" width="2" height="18.5"></rect>
            <rect id="Rectangle" fill="#F2F2F2" x="417.2485" y="319.90779" width="140" height="2"></rect>
            <rect id="Rectangle" fill="#F2F2F2" x="455.2485" y="301.90779" width="2" height="18.5"></rect>
            <rect id="Rectangle" fill="#F2F2F2" x="516.2485" y="301.90779" width="2" height="18.5"></rect>
            <rect id="Rectangle" fill="#F2F2F2" x="461.2485" y="560.90779" width="140" height="2"></rect>
            <rect id="Rectangle" fill="#F2F2F2" x="499.2485" y="542.90779" width="2" height="18.5"></rect>
            <rect id="Rectangle" fill="#F2F2F2" x="560.2485" y="542.90779" width="2" height="18.5"></rect>
            <rect id="Rectangle" fill="#F2F2F2" x="685.2485" y="487.90779" width="140" height="2"></rect>
            <rect id="Rectangle" fill="#F2F2F2" x="723.2485" y="469.90779" width="2" height="18.5"></rect>
            <rect id="Rectangle" fill="#F2F2F2" x="784.2485" y="469.90779" width="2" height="18.5"></rect>
            <polygon id="Path" fill="#2F2E41" points="362.06 702.184 125.274 702.184 125.274 700.481 360.356 700.481 360.356 617.861 145.18 617.861 134.727 596.084 136.263 595.347 146.252 616.157 362.06 616.157"></polygon>
            <circle id="Oval" fill="#696878" cx="156.78851" cy="726.03301" r="17.88673"></circle>
            <circle id="Oval" fill="#696878" cx="333.10053" cy="726.03301" r="17.88673"></circle>
            <circle id="Oval" fill="#7C7C7C" cx="540.92726" cy="346.153" r="11.07274"></circle>
            <path d="M387.38538,589.75318 L121.23673,589.75318 L63.64844,401.51671 L446.69256,401.51671 L446.34404,402.62424 L387.38538,589.75318 Z M122.49688,588.04968 L386.136,588.04968 L444.37017,403.22017 L65.95082,403.22017 L122.49688,588.04968 Z" id="Shape" fill="#2F2E41"></path>
            <polygon id="Path" fill="#F2F2F2" points="366.61 579.958 132.842 579.958 82.26 413.015 418.701 413.015 418.395 413.998"></polygon>
            <polygon id="Path" fill="#2F2E41" points="451.465 384.7 449.818 384.263 461.059 341.894 526.448 341.894 526.448 343.598 462.37 343.598"></polygon>
            <rect id="Rectangle" fill="#2F2E41" x="82.2584" y="458.58385" width="345.2931" height="1.7035"></rect>
            <rect id="Rectangle" fill="#2F2E41" x="101.45894" y="521.34377" width="306.31852" height="1.7035"></rect>
            <rect id="Rectangle" fill="#2F2E41" x="254.31376" y="402.36843" width="1.7035" height="186.53301"></rect>
            <rect id="Rectangle" fill="#2F2E41" transform="translate(327.021806, 495.634892) rotate(-86.249190) translate(-327.021806, -495.634892) " x="233.557421" y="494.782997" width="186.92877" height="1.70379"></rect>
            <rect id="Rectangle" fill="#2F2E41" transform="translate(183.309181, 495.634921) rotate(-3.729000) translate(-183.309181, -495.634921) " x="182.457286" y="402.170536" width="1.70379" height="186.92877"></rect>
            <rect id="Rectangle" fill="#2F2E41" x="0" y="745" width="896" height="2"></rect>
            <path d="M595.41068,61.87599 C595.41068,61.87599 610.0291,103.48226 601.03314,109.88323 C592.03718,116.2842 631.39448,168.55871 631.39448,168.55871 L678.62322,155.75678 L652.75986,112.01685 C652.75986,112.01685 649.38638,68.27693 649.38638,61.87596 C649.38638,55.47499 595.41068,61.87599 595.41068,61.87599 Z" id="Path" fill="#A0616A"></path>
            <path d="M595.41068,61.87599 C595.41068,61.87599 610.0291,103.48226 601.03314,109.88323 C592.03718,116.2842 631.39448,168.55871 631.39448,168.55871 L678.62322,155.75678 L652.75986,112.01685 C652.75986,112.01685 649.38638,68.27693 649.38638,61.87596 C649.38638,55.47499 595.41068,61.87599 595.41068,61.87599 Z" id="Path" fill="#000000" opacity="0.1"></path>
            <path d="M570.87364,358.45403 C570.87364,358.45403 566.60633,411.79541 570.87364,439.53292 C575.14095,467.27043 581.54192,544.08202 581.54192,544.08202 C581.54192,544.08202 581.54192,689.17056 605.01212,691.30421 C628.48232,693.43786 645.55157,695.57152 647.68522,687.0369 C649.81887,678.50228 637.01695,674.23497 643.41791,669.96766 C649.81887,665.70035 651.95253,650.76477 643.41791,633.69553 C634.88329,616.62629 643.41791,443.80023 643.41791,443.80023 L683.95736,552.61664 C683.95736,552.61664 688.22467,642.23015 692.49198,655.03208 C696.75929,667.83401 688.22467,691.30421 703.16025,693.43787 C718.09583,695.57153 735.16508,682.76959 743.6997,678.50228 C752.23432,674.23497 730.89777,674.23497 735.16508,672.10128 C739.43239,669.96759 752.23432,663.56666 747.96701,661.433 C743.6997,659.29934 739.43239,556.88391 739.43239,556.88391 C739.43239,556.88391 727.69728,338.18431 712.7617,329.64971 C697.82612,321.11511 688.2247,335.81547 688.2247,335.81547 L570.87364,358.45403 Z" id="Path" fill="#909094"></path>
            <path d="M609.27943,682.76959 L609.27943,699.83883 C609.27943,699.83883 590.07654,746.23825 609.27943,746.23825 C628.48232,746.23825 643.41791,751.04655 643.41791,744.64559 L643.41791,687.0369 L609.27943,682.76959 Z" id="Path" fill="#06686F"></path>
            <path d="M735.16508,682.73929 L735.16508,699.80853 C735.16508,699.80853 754.36797,746.20794 735.16508,746.20794 C715.96219,746.20794 701.0266,751.01625 701.0266,744.61528 L701.0266,687.0066 L735.16508,682.73929 Z" id="Path" fill="#06686F"></path>
            <circle id="Oval" fill="#A0616A" cx="625.28185" cy="54.4082" r="38.40579"></circle>
            <path d="M613.54674,125.88564 C613.54674,125.88564 624.21502,157.89046 641.28426,151.4895 L658.3535,145.0885 L688.22467,349.91941 C688.22467,349.91941 664.75446,384.05789 630.61598,362.72134 C596.4775,341.38479 613.54674,125.88564 613.54674,125.88564 Z" id="Path" fill="#09161B"></path>
            <path d="M643.41791,119.48471 L653.01936,99.21499 C653.01936,99.21499 709.56122,125.88568 718.09584,134.4203 C726.63046,142.95492 726.63046,155.75685 726.63046,155.75685 L711.69487,209.09822 C711.69487,209.09822 715.96218,326.44922 715.96218,330.71656 C715.96218,334.9839 730.89777,358.45407 720.22949,349.91945 C709.56121,341.38483 707.42756,332.85021 698.89294,345.65214 C690.35832,358.45407 671.15543,373.38966 671.15543,373.38966 L643.41791,119.48471 Z" id="Path" fill="#00C1CE"></path>
            <path d="M718.09584,273.10783 L711.69484,332.85017 C711.69484,332.85017 673.28905,366.98865 681.82367,369.12231 C690.35829,371.25597 694.6256,362.72131 694.6256,362.72131 C694.6256,362.72131 709.56119,377.6569 718.09581,369.12231 C726.63043,360.58772 747.967,279.5088 747.967,279.5088 L718.09584,273.10783 Z" id="Path" fill="#A0616A"></path>
            <path d="M626.1,0.12987 C617.58588,-0.1745 608.47451,-0.32506 601.29594,4.26308 C597.993047,6.56567089 595.096093,9.40153479 592.72364,12.65461 C585.73211,21.49307 579.69111,32.61387 582.28811,43.57998 L585.30444,42.40358 C585.304341,45.3307745 584.653598,48.22135 583.39929,50.86619 C583.82404,49.63109 585.24651,51.6277 584.86569,52.87704 L581.543,63.77771 C587.00507,61.77532 593.79961,65.8296 594.63119,71.5874 C595.01093,58.92617 596.32439,44.40775 606.59519,36.99409 C611.7747,33.25541 618.32984,32.11409 624.63681,31.10059 C630.45513,30.16559 636.55462,29.274 642.12758,31.18945 C647.70054,33.1049 652.44629,38.80445 651.18288,44.56038 C653.75252,43.6752 656.62644,45.46604 657.89635,47.86894 C659.16626,50.27184 659.23297,53.10644 659.27119,55.824 C662.0103,57.75983 665.12751,53.9158 666.24382,50.75288 C668.86415,43.32854 671.19323,35.42549 669.78165,27.67988 C668.37007,19.93427 662.0584,12.53215 654.18527,12.50588 C655.140905,11.4562134 655.650774,10.0759865 655.60703,8.65714 L649.11775,8.10884 C650.765176,7.87557284 652.280251,7.07679258 653.4035,5.8493 C650.7981,8.71623 630.31323,0.28048 626.1,0.12987 Z" id="Path" fill="#2F2E41"></path>
            <path d="M624.215,113.08371 C624.215,113.08371 606.84571,96.06286 600.59477,97.10549 C594.34383,98.14812 585.80923,113.08371 585.80923,113.08371 C585.80923,113.08371 534.60151,130.15295 536.73516,147.22219 C538.86881,164.29143 562.339,247.50397 562.339,247.50397 C562.339,247.50397 581.5419,347.78576 564.47266,358.45403 C547.40342,369.1223 645.55155,396.85982 647.6852,384.05789 C649.81885,371.25596 654.0862,243.23666 647.6852,224.03377 C641.2842,204.83088 624.215,113.08371 624.215,113.08371 Z" id="Path" fill="#00C1CE"></path>
            <path d="M698.89294,147.22219 L725.27559,147.22219 C725.27559,147.22219 743.6997,228.30108 745.83335,236.83571 C747.967,245.37034 752.23435,285.90977 750.10066,285.90977 C747.96697,285.90977 705.29391,277.37515 705.29391,283.77612 L698.89294,147.22219 Z" id="Path" fill="#00C1CE"></path>
            <path d="M698,348 L597,348 C587.14392,302.66 586.32043,258.85351 597,217 L698,217 C681.70081,258.10071 680.68225,301.60708 698,348 Z" id="Path" fill="#F2F2F2"></path>
            <path d="M555.93806,292.31071 L585.80923,305.11271 C585.80923,305.11271 643.41791,313.64733 643.41791,290.17712 C643.41791,266.70691 585.80923,279.50885 585.80923,279.50885 L566.60505,273.36871 L555.93806,292.31071 Z" id="Path" fill="#A0616A"></path>
            <path d="M562.339,134.42026 L536.73514,140.82126 L517.53227,253.90494 C517.53227,253.90494 511.13127,283.77611 521.79958,285.90976 C532.46789,288.04341 562.339,305.11271 562.339,305.11271 C562.339,305.11271 566.60631,273.10788 575.14093,273.10788 L553.8044,256.03859 L566.60633,181.36071 L562.339,134.42026 Z" id="Path" fill="#00C1CE"></path>
            <rect id="Rectangle" fill="#F2F2F2" x="60.2485" y="352.90779" width="140" height="2"></rect>
            <rect id="Rectangle" fill="#F2F2F2" x="98.2485" y="334.90779" width="2" height="18.5"></rect>
            <rect id="Rectangle" fill="#F2F2F2" x="159.2485" y="334.90779" width="2" height="18.5"></rect>
            <rect id="Rectangle" fill="#F2F2F2" x="109.2485" y="56.90779" width="140" height="2"></rect>
            <rect id="Rectangle" fill="#F2F2F2" x="209.2485" y="58.40779" width="2" height="18.5"></rect>
            <rect id="Rectangle" fill="#F2F2F2" x="148.2485" y="58.40779" width="2" height="18.5"></rect>
            <rect id="Rectangle" fill="#F2F2F2" x="250.2485" y="253.90779" width="140" height="2"></rect>
            <rect id="Rectangle" fill="#F2F2F2" x="350.2485" y="255.40779" width="2" height="18.5"></rect>
            <rect id="Rectangle" fill="#F2F2F2" x="289.2485" y="255.40779" width="2" height="18.5"></rect>
            <rect id="Rectangle" fill="#F2F2F2" x="12.2485" y="252.90779" width="140" height="2"></rect>
            <rect id="Rectangle" fill="#F2F2F2" x="112.2485" y="254.40779" width="2" height="18.5"></rect>
            <rect id="Rectangle" fill="#F2F2F2" x="51.2485" y="254.40779" width="2" height="18.5"></rect>
            <rect id="Rectangle" fill="#F2F2F2" x="180.2485" y="152.90779" width="140" height="2"></rect>
            <rect id="Rectangle" fill="#F2F2F2" x="218.2485" y="134.90779" width="2" height="18.5"></rect>
            <rect id="Rectangle" fill="#F2F2F2" x="279.2485" y="134.90779" width="2" height="18.5"></rect>
        </g>
    </g>
</svg>